<?xml version="1.0" encoding="UTF-8"?><svg id="a" xmlns="http://www.w3.org/2000/svg" viewBox="0 0 399.999976625445925 344.055910695373314"><path d="m372.933808082258111,113.438720918642503C319.279114478742486,32.264648653017503,203.697067969953423-16.281369947446365,114.774269813215142,5.008120275484544c-38.918266296386719,9.317630290985107-66.279350280761719,30.468259334564209-80.247310638427734,58.11414098739624l-20.190188407897949,33.50177001953125c-.224240303039551.36932373046875-.449830055236816.737983703613281-.668950080871582,1.109992980957031l-.248900413513184.413017272949219.002260208129883.01812744140625c-21.026479721069336,36.120475769042969-17.982049942016602,84.611686706542969,13.639590263366699,132.452018737792969,53.654722213745117,81.174072265625,169.236761093139648,129.7200927734375,258.159536361694336,108.43060302734375,35.01849365234375-8.38397216796875,60.672119140625-26.35235595703125,75.63909912109375-50.00848388671875l.017578125-.0126953125.24200439453125-.406982421875c.77996826171875-1.2467041015625,1.53082275390625-2.50872802734375,2.25146484375-3.7862548828125l21.04925537109375-35.3985595703125-.00067138671875-.00030517578125c23.36016845703125-36.45440673828125,21.1812744140625-86.57476806640625-11.4852294921875-135.99578857421875Z" style="fill:#100f28; stroke-width:0px;"/><ellipse cx="207.320975679379899" cy="159.653482232484521" rx="138.149109352253589" ry="198.407744366006654" transform="translate(-27.822429685396202 274.452438059899919) rotate(-63.621117468109546)" style="fill:#e9e1ff; stroke-width:0px;"/><ellipse cx="210.645389057188822" cy="154.225813752947488" rx="136.656202749607644" ry="196.311540393495591" transform="translate(-20.882409015821594 274.857319912311198) rotate(-63.730629385855316)" style="fill:#201f2d; stroke-width:0px;"/><path d="m130.177690810884087,81.080693468902609l61.30144097493303-14.577022353478242,38.297664930470091,26.046053674263931-80.207967493415708,19.072852391134802.000990118136542.001592520417944c-28.01088890633855,6.660779049151643-36.865665049969721,34.342597934043624-19.777399992253777,61.827612112514544,16.928297328040571,27.227719754295322,52.965514509183777,44.050692747006906,80.871887748737208,37.887477990729167l103.60992651950437-24.637662523049585-62.142249027438083-42.337615626060142,39.015296791070796-9.277544612428755,62.143449428993335,42.337330179581841.358195069557041-.085176097867588,19.012347489962849,30.579736360761672-142.199318462295196,33.813930160664313.033069945795432.053190182032267c-.997248447187303.237138192438579-2.001631800181713.455186460325422-3.012050621329763.655189053546565l-3.624677859783333.861921177482145-.127315047951924-.204775375746976c-44.212531103727088,6.72644291002689-98.902909342379644-20.005614513673208-125.151266494623087-62.223854109935928-27.533452699848567-44.285205975075769-13.37441620239224-88.885618794782204,31.59842507122903-99.792512782799349l-.000449089298854-.000722321762623Z" style="fill:#cab3f9; fill-rule:evenodd; stroke-width:0px;"/><path d="m178.120342526142849,135.934192471358074c5.258156742887877,8.457295819253886,2.53359739249936,16.974791651183295-6.085606662458304,19.024373654152441-8.619085203320537,2.049553740943338-19.868947057035257-3.144929662089453-25.127103799922224-11.60222548134152-5.258227465613345-8.457409570712116-2.533608101142818-16.975050242330326,6.085477102174082-19.024603983272755,8.619204054956754-2.049582002968236,19.869005894594011,3.145046239748808,25.127233360206446,11.602455810461834Z" style="fill:#cab3f9; fill-rule:evenodd; stroke-width:0px;"/><ellipse cx="188.879926918618366" cy="182.052616540821873" rx="13.907446316380973" ry="19.724534919552241" transform="translate(-65.56984811369324 245.881246231174373) rotate(-58.027594877806244)" style="fill:#cab3f9; stroke-width:0px;"/></svg>