<svg width="512" height="512" viewBox="0 0 512 512" fill="none" xmlns="http://www.w3.org/2000/svg">
<mask id="mask0_13_36" style="mask-type:luminance" maskUnits="userSpaceOnUse" x="0" y="0" width="512" height="512">
<path d="M512 0H0V512H512V0Z" fill="white"/>
</mask>
<g mask="url(#mask0_13_36)">
<path d="M50.1161 224.52C48.0366 216.762 48.0363 208.592 50.1153 200.833C52.1942 193.075 56.279 186 61.9591 180.32L180.32 61.9592C186 56.279 193.075 52.1942 200.833 50.1153C208.592 48.0364 216.761 48.0367 224.52 50.1161L335.276 79.7931C336.429 64.62 341.712 50.0511 350.552 37.6648L217.154 1.92468C207.58 -0.640638 197.498 -0.640586 187.924 1.92485C178.349 4.49029 169.618 9.53075 162.608 16.5396L16.5423 162.605C9.53339 169.615 4.49296 178.346 1.92754 187.921C-0.637899 197.495 -0.637954 207.577 1.92737 217.152L39.0424 355.666C51.1754 346.4 65.6206 340.645 80.8013 339.032L50.1161 224.52Z" fill="#AC8DF1"/>
<path d="M430.185 169.141L461.895 287.479C463.975 295.24 463.972 303.408 461.895 311.165C459.815 318.926 455.729 326 450.049 331.68L331.688 450.043C326.008 455.723 318.934 459.806 311.174 461.886C303.417 463.964 295.245 463.964 287.488 461.886L172.977 431.201C171.363 446.383 165.609 460.828 156.343 472.96L294.857 510.075C304.43 512.641 314.513 512.641 324.086 510.075C333.663 507.509 342.393 502.47 349.403 495.46L495.469 349.394C502.479 342.384 507.517 333.654 510.084 324.078C512.65 314.504 512.65 304.422 510.084 294.848L471.569 151.148C459.692 160.842 445.372 167.068 430.185 169.141Z" fill="#AC8DF1"/>
<path d="M42.3724 374.769C32.9916 384.148 26.6032 396.102 24.015 409.112C21.4268 422.124 22.7551 435.611 27.8319 447.868C32.9086 460.122 41.5059 470.599 52.5362 477.97C63.5668 485.339 76.535 489.274 89.8015 489.274C103.068 489.274 116.036 485.339 127.066 477.97C138.097 470.599 146.694 460.122 151.771 447.868C156.848 435.611 158.176 422.124 155.588 409.112C153 396.102 146.611 384.148 137.231 374.769C124.642 362.209 107.585 355.154 89.8015 355.154C72.0183 355.154 54.9612 362.209 42.3724 374.769Z" fill="#6851FF"/>
<path d="M371.303 38.9121C361.924 48.2926 355.533 60.2443 352.947 73.2558C350.358 86.267 351.686 99.7537 356.763 112.01C361.84 124.267 370.436 134.743 381.466 142.113C392.498 149.483 405.466 153.417 418.731 153.417C431.999 153.417 444.966 149.483 455.998 142.113C467.028 134.743 475.624 124.267 480.701 112.01C485.778 99.7537 487.106 86.267 484.517 73.2558C481.931 60.2443 475.541 48.2926 466.161 38.9121C453.574 26.3516 436.515 19.2976 418.731 19.2976C400.949 19.2976 383.89 26.3516 371.303 38.9121Z" fill="#6851FF"/>
<path d="M295.375 433.801C292.681 433.801 290.001 433.448 287.399 432.751L182.578 404.662C179.083 385.998 170.028 368.825 156.601 355.399C143.173 341.973 126.001 332.915 107.337 329.421L79.2513 224.609C77.8589 219.381 77.8628 213.879 79.2632 208.653C80.6636 203.427 83.411 198.661 87.2309 194.829L194.818 87.2392C198.645 83.4119 203.412 80.6597 208.64 79.2588C213.868 77.8581 219.373 77.8584 224.601 79.2596L326.483 106.559C330.524 125.108 340.073 142.004 353.88 155.034C367.686 168.063 385.106 176.619 403.857 179.581L432.742 287.407C434.134 292.637 434.131 298.139 432.728 303.363C431.329 308.591 428.582 313.357 424.76 317.19L317.173 424.777C314.318 427.646 310.918 429.923 307.177 431.47C303.436 433.02 299.425 433.812 295.375 433.801Z" fill="#C6B2FF"/>
</g>
</svg>
